<svg width="79" height="17" viewBox="0 0 79 17" fill="none" xmlns="http://www.w3.org/2000/svg">
<path d="M16.1406 6.24469L8.07031 14.315L0 6.24469L4.17871 2.065L8.07031 5.9566L11.9609 2.065L16.1406 6.24469Z" fill="url(#paint0_linear_11_174)"/>
<path d="M68.5891 10.647C68.5891 9.66697 68.7361 8.81297 69.0301 8.08497C69.3381 7.34297 69.7371 6.72697 70.2271 6.23697C70.7171 5.74697 71.2771 5.37597 71.9071 5.12397C72.5511 4.87197 73.2091 4.74597 73.8811 4.74597C75.449 4.74597 76.6881 5.22897 77.5981 6.19497C78.5081 7.14697 78.9631 8.55397 78.9631 10.416C78.9631 10.598 78.9561 10.801 78.9421 11.025C78.9281 11.235 78.9141 11.424 78.9001 11.592H71.8021C71.8721 12.236 72.1731 12.747 72.7051 13.125C73.2371 13.503 73.951 13.692 74.847 13.692C75.421 13.692 75.9811 13.643 76.5271 13.545C77.0871 13.433 77.5421 13.3 77.8921 13.146L78.312 15.687C78.144 15.771 77.92 15.855 77.64 15.939C77.36 16.023 77.045 16.093 76.695 16.149C76.359 16.219 75.9951 16.275 75.6031 16.317C75.2111 16.359 74.8191 16.38 74.4271 16.38C73.4331 16.38 72.5651 16.233 71.8231 15.939C71.0951 15.645 70.4861 15.246 69.9961 14.742C69.5201 14.224 69.163 13.615 68.925 12.915C68.701 12.215 68.5891 11.459 68.5891 10.647ZM75.9391 9.44997C75.9251 9.18397 75.876 8.92497 75.792 8.67297C75.722 8.42097 75.6031 8.19697 75.4351 8.00097C75.2811 7.80497 75.078 7.64397 74.826 7.51797C74.588 7.39197 74.287 7.32897 73.923 7.32897C73.5731 7.32897 73.272 7.39197 73.0201 7.51797C72.7681 7.62997 72.558 7.78397 72.39 7.97997C72.222 8.17597 72.0891 8.40697 71.9911 8.67297C71.9071 8.92497 71.8441 9.18397 71.8021 9.44997H75.9391Z" fill="url(#paint1_linear_11_174)"/>
<path d="M59.3491 10.563C59.3491 9.76497 59.4751 9.01597 59.7271 8.31597C59.9931 7.60197 60.3711 6.98597 60.8611 6.46797C61.3511 5.93597 61.9461 5.51597 62.6461 5.20797C63.3461 4.89997 64.1441 4.74597 65.0401 4.74597C65.6281 4.74597 66.1671 4.80197 66.6571 4.91397C67.1471 5.01197 67.6231 5.15897 68.0851 5.35497L67.4341 7.85397C67.1401 7.74197 66.8181 7.64397 66.4681 7.55997C66.1181 7.47597 65.7261 7.43397 65.2921 7.43397C64.3681 7.43397 63.6751 7.72097 63.2131 8.29497C62.7651 8.86897 62.5411 9.62497 62.5411 10.563C62.5411 11.557 62.7511 12.327 63.1711 12.873C63.6051 13.419 64.3541 13.692 65.4181 13.692C65.7961 13.692 66.2021 13.657 66.6361 13.587C67.0701 13.517 67.4691 13.405 67.8331 13.251L68.2741 15.813C67.9101 15.967 67.4551 16.1 66.9091 16.212C66.3631 16.324 65.7611 16.38 65.1031 16.38C64.0951 16.38 63.2271 16.233 62.4991 15.939C61.7711 15.631 61.1691 15.218 60.6931 14.7C60.2311 14.182 59.8881 13.573 59.6641 12.873C59.4541 12.159 59.3491 11.389 59.3491 10.563Z" fill="url(#paint2_linear_11_174)"/>
<path d="M58.1927 16.086H55.0638V5.04H58.1927V16.086ZM58.4868 1.848C58.4868 2.422 58.2978 2.877 57.9198 3.213C57.5558 3.535 57.1218 3.696 56.6178 3.696C56.1138 3.696 55.6728 3.535 55.2948 3.213C54.9308 2.877 54.7487 2.422 54.7487 1.848C54.7487 1.274 54.9308 0.826 55.2948 0.504C55.6728 0.168 56.1138 0 56.6178 0C57.1218 0 57.5558 0.168 57.9198 0.504C58.2978 0.826 58.4868 1.274 58.4868 1.848Z" fill="url(#paint3_linear_11_174)"/>
<path d="M46.8877 2.28897L50.0167 1.78497V5.03997H53.7757V7.64398H50.0167V11.529C50.0167 12.187 50.1287 12.712 50.3527 13.104C50.5907 13.496 51.0597 13.692 51.7597 13.692C52.0957 13.692 52.4387 13.664 52.7887 13.608C53.1527 13.538 53.4817 13.447 53.7757 13.335L54.2167 15.771C53.8387 15.925 53.4187 16.058 52.9567 16.17C52.4947 16.282 51.9277 16.338 51.2557 16.338C50.4017 16.338 49.6947 16.226 49.1347 16.002C48.5747 15.764 48.1267 15.442 47.7907 15.036C47.4547 14.616 47.2167 14.112 47.0767 13.524C46.9507 12.936 46.8877 12.285 46.8877 11.571V2.28897Z" fill="url(#paint4_linear_11_174)"/>
<path d="M35.464 10.647C35.464 9.66697 35.611 8.81297 35.905 8.08497C36.213 7.34297 36.612 6.72697 37.102 6.23697C37.592 5.74697 38.152 5.37597 38.782 5.12397C39.426 4.87197 40.084 4.74597 40.756 4.74597C42.324 4.74597 43.563 5.22897 44.473 6.19497C45.383 7.14697 45.838 8.55397 45.838 10.416C45.838 10.598 45.831 10.801 45.817 11.025C45.803 11.235 45.789 11.424 45.775 11.592H38.677C38.747 12.236 39.048 12.747 39.58 13.125C40.112 13.503 40.826 13.692 41.722 13.692C42.296 13.692 42.856 13.643 43.402 13.545C43.962 13.433 44.417 13.3 44.767 13.146L45.187 15.687C45.019 15.771 44.795 15.855 44.515 15.939C44.235 16.023 43.92 16.093 43.57 16.149C43.234 16.219 42.87 16.275 42.478 16.317C42.086 16.359 41.694 16.38 41.302 16.38C40.308 16.38 39.44 16.233 38.698 15.939C37.97 15.645 37.361 15.246 36.871 14.742C36.395 14.224 36.038 13.615 35.8 12.915C35.576 12.215 35.464 11.459 35.464 10.647ZM42.814 9.44997C42.8 9.18397 42.751 8.92497 42.667 8.67297C42.597 8.42097 42.478 8.19697 42.31 8.00097C42.156 7.80497 41.953 7.64397 41.701 7.51797C41.463 7.39197 41.162 7.32897 40.798 7.32897C40.448 7.32897 40.147 7.39197 39.895 7.51797C39.643 7.62997 39.433 7.78397 39.265 7.97997C39.097 8.17597 38.964 8.40697 38.866 8.67297C38.782 8.92497 38.719 9.18397 38.677 9.44997H42.814Z" fill="url(#paint5_linear_11_174)"/>
<path d="M25.2096 10.227C25.2096 9.21903 25.0766 8.50503 24.8106 8.08503C24.5586 7.66503 24.1176 7.45503 23.4876 7.45503C23.2916 7.45503 23.0886 7.46903 22.8786 7.49703C22.6686 7.51103 22.4656 7.53203 22.2696 7.56003V16.086H19.1406V5.41803C19.4066 5.34803 19.7146 5.27803 20.0646 5.20803C20.4286 5.12403 20.8066 5.05403 21.1986 4.99803C21.6046 4.92803 22.0176 4.87903 22.4376 4.85103C22.8576 4.80903 23.2706 4.78802 23.6766 4.78802C24.4746 4.78802 25.1186 4.89303 25.6086 5.10303C26.1126 5.29903 26.5256 5.53703 26.8476 5.81703C27.2956 5.49503 27.8066 5.24303 28.3806 5.06103C28.9686 4.87903 29.5076 4.78802 29.9976 4.78802C30.8796 4.78802 31.6006 4.91403 32.1606 5.16603C32.7346 5.40403 33.1896 5.74703 33.5256 6.19503C33.8616 6.64303 34.0926 7.17503 34.2186 7.79103C34.3446 8.40703 34.4076 9.09303 34.4076 9.84903V16.086H31.2786V10.227C31.2786 9.21903 31.1456 8.50503 30.8796 8.08503C30.6276 7.66503 30.1866 7.45503 29.5566 7.45503C29.3886 7.45503 29.1506 7.49703 28.8426 7.58103C28.5486 7.66503 28.3036 7.77003 28.1076 7.89603C28.2056 8.21803 28.2686 8.56103 28.2966 8.92502C28.3246 9.27502 28.3386 9.65303 28.3386 10.059V16.086H25.2096V10.227Z" fill="url(#paint6_linear_11_174)"/>
<defs>
<linearGradient id="paint0_linear_11_174" x1="0" y1="8.19" x2="16.1406" y2="8.19" gradientUnits="userSpaceOnUse">
<stop stop-color="white"/>
</linearGradient>
<linearGradient id="paint1_linear_11_174" x1="68.5891" y1="10.563" x2="78.9631" y2="10.563" gradientUnits="userSpaceOnUse">
<stop stop-color="white"/>
</linearGradient>
<linearGradient id="paint2_linear_11_174" x1="59.3491" y1="10.563" x2="68.2741" y2="10.563" gradientUnits="userSpaceOnUse">
<stop stop-color="white"/>
</linearGradient>
<linearGradient id="paint3_linear_11_174" x1="54.7487" y1="8.043" x2="58.4868" y2="8.043" gradientUnits="userSpaceOnUse">
<stop stop-color="white"/>
</linearGradient>
<linearGradient id="paint4_linear_11_174" x1="46.8877" y1="9.06147" x2="54.2167" y2="9.06147" gradientUnits="userSpaceOnUse">
<stop stop-color="white"/>
</linearGradient>
<linearGradient id="paint5_linear_11_174" x1="35.464" y1="10.563" x2="45.838" y2="10.563" gradientUnits="userSpaceOnUse">
<stop stop-color="white"/>
</linearGradient>
<linearGradient id="paint6_linear_11_174" x1="19.1406" y1="10.437" x2="34.4076" y2="10.437" gradientUnits="userSpaceOnUse">
<stop stop-color="white"/>
</linearGradient>
</defs>
</svg>
