<svg width="13" height="14" viewBox="0 0 13 14" fill="none" xmlns="http://www.w3.org/2000/svg">
<g clip-path="url(#clip0_55_101)">
<path d="M8.66671 4.66663C9.52866 4.66663 10.3553 5.03537 10.9648 5.69175C11.5743 6.34813 11.9167 7.23837 11.9167 8.16663V12.25H9.75004V8.16663C9.75004 7.85721 9.6359 7.56046 9.43274 7.34167C9.22958 7.12288 8.95403 6.99996 8.66671 6.99996C8.37939 6.99996 8.10384 7.12288 7.90068 7.34167C7.69751 7.56046 7.58337 7.85721 7.58337 8.16663V12.25H5.41671V8.16663C5.41671 7.23837 5.75912 6.34813 6.36861 5.69175C6.9781 5.03537 7.80475 4.66663 8.66671 4.66663Z" stroke="white" stroke-width="1.5" stroke-linecap="round" stroke-linejoin="round"/>
<path d="M3.25004 5.24996H1.08337V12.25H3.25004V5.24996Z" stroke="white" stroke-width="1.5" stroke-linecap="round" stroke-linejoin="round"/>
<path d="M2.16671 3.49996C2.76502 3.49996 3.25004 2.97762 3.25004 2.33329C3.25004 1.68896 2.76502 1.16663 2.16671 1.16663C1.5684 1.16663 1.08337 1.68896 1.08337 2.33329C1.08337 2.97762 1.5684 3.49996 2.16671 3.49996Z" stroke="white" stroke-width="1.5" stroke-linecap="round" stroke-linejoin="round"/>
</g>
<defs>
<clipPath id="clip0_55_101">
<rect width="13" height="14" fill="white"/>
</clipPath>
</defs>
</svg>
