<svg width="14" height="14" viewBox="0 0 14 14" fill="none" xmlns="http://www.w3.org/2000/svg">
<g clip-path="url(#clip0_55_103)">
<path d="M10.2084 3.79163H10.2142M4.08341 1.16663H9.91675C11.5276 1.16663 12.8334 2.47246 12.8334 4.08329V9.91663C12.8334 11.5275 11.5276 12.8333 9.91675 12.8333H4.08341C2.47258 12.8333 1.16675 11.5275 1.16675 9.91663V4.08329C1.16675 2.47246 2.47258 1.16663 4.08341 1.16663ZM9.33342 6.63246C9.40541 7.11794 9.32248 7.61375 9.09644 8.04939C8.8704 8.48502 8.51275 8.83828 8.07436 9.05894C7.63598 9.27959 7.13918 9.35639 6.65462 9.27842C6.17007 9.20045 5.72244 8.97167 5.3754 8.62464C5.02837 8.2776 4.79959 7.82997 4.72162 7.34542C4.64365 6.86087 4.72045 6.36406 4.94111 5.92568C5.16176 5.48729 5.51502 5.12964 5.95066 4.9036C6.38629 4.67756 6.8821 4.59464 7.36758 4.66663C7.86279 4.74006 8.32124 4.97081 8.67524 5.3248C9.02923 5.6788 9.25998 6.13725 9.33342 6.63246Z" stroke="white" stroke-width="1.5" stroke-linecap="round" stroke-linejoin="round"/>
</g>
<defs>
<clipPath id="clip0_55_103">
<rect width="14" height="14" fill="white"/>
</clipPath>
</defs>
</svg>
